PathFileType	4	(X/Y/Z)	2014001\dynamic\2014001_C1_02.trc
DataRate	CameraRate	NumFrames	NumMarkers	Units	OrigDataRate	OrigDataStartFrame	OrigNumFrames
100.000000	100.000000	4	52	mm	100.000000	266	426
Frame#	Time	L_IAS			L_IPS			R_IPS			R_IAS			L_FTC			L_FLE			L_FME			L_FAX			L_TTC			L_FAL			L_TAM			L_FCC			L_FM1			L_FM2			L_FM5			R_FTC			R_FLE			R_FME			R_FAX			R_TTC			R_FAL			R_TAM			R_FCC			R_FM1			R_FM2			R_FM5			CV7			TV10			SXS			SJN			L_SIA			L_SRS			L_SAA			L_SAE			L_HLE			L_HME			L_UOA			L_RSP			L_UHE			L_HM2			L_HM5			R_SIA			R_SRS			R_SAA			R_SAE			R_HLE			R_HME			R_UOA			R_RSP			R_UHE			R_HM2			R_HM5			
		X1	Y1	Z1	X2	Y2	Z2	X3	Y3	Z3	X4	Y4	Z4	X5	Y5	Z5	X6	Y6	Z6	X7	Y7	Z7	X8	Y8	Z8	X9	Y9	Z9	X10	Y10	Z10	X11	Y11	Z11	X12	Y12	Z12	X13	Y13	Z13	X14	Y14	Z14	X15	Y15	Z15	X16	Y16	Z16	X17	Y17	Z17	X18	Y18	Z18	X19	Y19	Z19	X20	Y20	Z20	X21	Y21	Z21	X22	Y22	Z22	X23	Y23	Z23	X24	Y24	Z24	X25	Y25	Z25	X26	Y26	Z26	X27	Y27	Z27	X28	Y28	Z28	X29	Y29	Z29	X30	Y30	Z30	X31	Y31	Z31	X32	Y32	Z32	X33	Y33	Z33	X34	Y34	Z34	X35	Y35	Z35	X36	Y36	Z36	X37	Y37	Z37	X38	Y38	Z38	X39	Y39	Z39	X40	Y40	Z40	X41	Y41	Z41	X42	Y42	Z42	X43	Y43	Z43	X44	Y44	Z44	X45	Y45	Z45	X46	Y46	Z46	X47	Y47	Z47	X48	Y48	Z48	X49	Y49	Z49	X50	Y50	Z50	X51	Y51	Z51	X52	Y52	Z52	

267	2.66	290.297821044922	886.4108276367192	863.0708007812505	219.122772216797	902.7487792968755	682.7644653320315	131.3328704833985	895.7514038085942	681.5784301757815	47.25115203857423	872.9020385742192	854.6300659179692	358.2838439941407	800.7421875000005	799.925903320313	342.2830810546876	465.9197692871096	932.784545898438	227.9312133789064	462.3901367187502	964.1257934570317	347.2176513671876	400.9458923339846	933.2473754882817	308.9240112304689	406.8307189941409	1003.599426269532	324.192352294922	91.97198486328128	1030.618408203125	240.4660491943361	111.6174926757813	1060.78759765625	272.1373596191407	39.17890930175783	1010.905578613282	273.6001892089845	103.9657745361329	1180.418701171875	332.1314086914064	108.593360900879	1175.028564453125	363.2197875976564	74.38742828369143	1134.05029296875	5.707485675811769	774.380981445313	757.2716064453127	66.51808929443362	428.4416809082034	742.8243408203127	187.3845825195313	423.924255371094	756.1275024414065	69.6301193237305	364.2276611328126	714.474792480469	120.8836898803712	352.4517211914064	775.4655151367192	138.910873413086	66.53025054931643	624.0515747070315	223.5659942626954	84.49028778076175	663.671081542969	197.2535552978517	27.99415016174318	579.7449340820315	210.4657440185548	25.08439445495607	764.8649902343752	145.5546112060547	36.5594825744629	772.3630371093755	98.89673614501959	24.34611320495607	711.7124633789065	143.5537109375001	1371.213500976563	691.8487548828127	165.2024993896485	1135.401245117188	634.4642333984377	159.5845794677735	1146.411987304688	865.373657226563	147.9747924804688	1306.453857421875	817.594360351563	257.7485351562501	1182.247802734375	628.618835449219	240.7204132080079	1312.523071289063	648.056579589844	346.3252258300782	1316.325805664063	730.5579223632815	329.2978820800782	1327.043701171875	770.2291870117192	413.5354003906252	1043.05712890625	737.2629394531252	339.1544799804689	1009.377136230469	710.5247192382815	388.7124023437502	1007.806579589844	704.599060058594	373.547088623047	821.2583007812505	848.716430664063	437.1802062988284	811.2207641601567	798.9548950195317	385.7368164062502	744.3909301757815	890.2763061523442	436.8635864257815	732.3633422851565	802.184448242188	48.65730667114261	1170.896728515625	622.407653808594	62.00745773315433	1295.7587890625	647.883972167969	-42.59389495849611	1284.99072265625	724.058532714844	-32.5885353088379	1290.1875	773.2335815429692	-85.82540130615237	985.5042114257817	725.8792724609377	-9.953959465026859	973.264282226563	697.5358886718752	-55.81086349487308	964.685668945313	695.2615966796877	-46.88402557373048	778.5327148437505	820.6342163085942	-108.6322631835938	774.5012207031255	767.7207031250002	-60.19141769409183	688.3975219726565	849.0324096679692	-104.8828201293946	695.517761230469	757.4765625000002	
268	2.67	290.3782958984376	885.5021362304692	867.0651245117192	219.7665252685548	902.2055053710942	686.587097167969	131.9869689941407	895.3320922851567	685.1126708984377	47.33012008666994	872.2719116210942	857.8433227539067	358.4274902343751	799.9364624023442	804.0575561523442	341.9457397460939	465.132995605469	936.4973144531255	227.5707092285157	461.6233520507815	967.516235351563	346.9193420410157	400.1217346191409	937.153442382813	308.4274902343751	406.2155456542971	1007.371276855469	323.7429504394532	91.48429870605472	1035.578491210938	239.9310150146486	111.2098083496094	1065.468872070313	271.7568359375001	38.53758621215822	1015.914001464844	272.7308959960939	103.9755935668946	1185.220336914063	331.2896423339845	108.5635833740235	1179.9921875	362.4677124023439	74.20686340332034	1139.224243164063	5.924303054809572	773.9314575195317	760.2767333984377	66.76196289062503	427.9560241699221	744.8792114257815	187.7966613769532	423.4163818359377	758.2354736328127	69.848991394043	363.8743286132814	716.4187011718752	121.0902175903321	351.7944335937501	777.3134765625005	138.9857940673829	66.70906066894534	624.2886352539065	223.6964263916017	84.48807525634768	663.9133911132815	197.3199462890626	28.27216529846193	579.8118286132815	210.5209503173829	25.0319175720215	764.8525390625002	145.5364074707032	36.52977752685548	772.414428710938	98.91909027099615	24.35798835754396	711.6934204101565	145.076156616211	1370.71240234375	695.7708740234377	166.3128051757813	1134.874633789063	638.3304443359377	160.301010131836	1145.75146484375	869.2333984375005	149.1627502441407	1305.84521484375	821.5365600585942	258.8721618652345	1181.538330078125	632.5587158203127	242.1120758056642	1311.817626953125	652.1333618164065	347.631805419922	1315.293090820313	734.733337402344	330.6024475097657	1326.0244140625	774.4092407226567	414.2179260253909	1041.890502929688	741.0003662109377	339.7476196289064	1008.403198242188	714.287536621094	389.2883300781252	1006.741577148438	708.3032226562502	373.922088623047	820.1088256835942	852.3239746093755	437.3833007812502	809.9337768554692	802.411743164063	386.090759277344	743.2508544921877	894.0033569335942	436.8575439453127	731.0810546875002	805.5805664062505	49.71837997436526	1170.640502929688	626.214050292969	63.35734939575198	1295.475708007813	651.716491699219	-41.37325286865236	1284.84130859375	727.845397949219	-31.36464309692384	1290.015014648438	777.0041503906255	-85.37184906005862	985.333374023438	730.3757934570315	-9.628160476684574	972.7858276367192	702.1357421875002	-55.43289947509768	964.268188476563	699.8247070312502	-46.55561447143556	778.905151367188	826.3870239257817	-108.3710403442383	774.5630493164067	773.5649414062505	-59.95954895019534	688.9451904296877	855.4785766601567	-104.6968231201172	695.5330200195315	763.8421020507815	
269	2.68	290.496795654297	884.5678100585942	871.1742553710942	220.4415283203126	901.6645507812505	690.4798583984377	132.6705780029297	894.925659179688	688.7141113281252	47.44395446777345	871.6255493164067	861.1229858398442	358.622039794922	799.0844116210942	808.1984863281255	341.6412963867189	464.3023071289065	940.182006835938	227.2709045410157	460.8167114257815	970.9057617187505	346.6494750976564	399.2525024414065	941.031860351563	307.9796142578126	405.5562438964846	1011.125	323.3237304687501	90.96128082275393	1040.525756835938	239.4360504150392	110.7741394042969	1070.16455078125	271.3894348144532	37.87166213989259	1020.9306640625	271.9538574218751	103.9512405395508	1190.01904296875	330.5362243652345	108.4959335327149	1184.938354492188	361.7810363769532	73.98392486572268	1144.368286132813	6.162596702575687	773.5005493164067	763.3469848632815	67.02331542968753	427.5006408691409	746.8966064453127	188.1681060791016	422.905212402344	760.3476562500002	70.06671142578128	363.5391845703126	718.3310546875002	121.2904129028321	351.1519165039064	779.1309204101567	139.0507812500001	66.90898895263675	624.5233154296877	223.8176574707032	84.49810028076175	664.150817871094	197.3806762695314	28.56561088562013	579.8756103515627	210.5648193359376	24.98509025573732	764.838806152344	145.5231018066407	36.50240707397462	772.4597167968755	98.94543457031256	24.37038040161134	711.6684570312502	146.6332550048829	1370.19873046875	699.7959594726565	167.4611206054688	1134.347045898438	642.2806396484377	161.037094116211	1145.063354492188	873.184692382813	150.3782501220704	1305.218872070313	825.574096679688	260.0404663085939	1180.822265625	636.6038208007815	243.5498657226564	1311.109375	656.3215942382815	348.975799560547	1314.250122070313	739.0347290039065	331.9349670410157	1324.988647460938	778.7117309570317	414.9460754394534	1040.71533203125	744.8518676757815	340.399871826172	1007.428100585938	718.1239013671877	389.9237060546877	1005.666931152344	712.1138305664065	374.3114318847657	818.9378051757817	856.0058593750005	437.5970458984377	808.6262207031255	805.953247070313	386.4429931640627	742.0936279296877	897.8190307617192	436.8504333496096	729.777770996094	809.049194335938	50.82337951660159	1170.379516601563	630.1004028320315	64.75185394287112	1295.187377929688	655.6345214843752	-40.11690902709962	1284.677978515625	731.710632324219	-30.10801124572755	1289.817138671875	780.8451538085942	-84.87752532958987	985.1491088867192	734.9522705078127	-9.25050258636475	972.3029785156255	706.8054199218752	-55.0154724121094	963.8373413085942	704.4713134765627	-46.18439865112306	779.2804565429692	832.2315063476567	-108.074577331543	774.6179809570317	779.5020141601567	-59.68778991699222	689.488952636719	861.9970703125005	-104.4666824340821	695.547058105469	770.2924194335942	
270	2.69	290.6598510742189	883.6071777343755	875.4013671875005	221.1468505859376	901.1306152343755	694.4472656250002	133.3822021484376	894.538696289063	692.3906860351565	47.59617614746095	870.964965820313	864.478637695313	358.8715820312501	798.183227539063	812.3413085937505	341.371307373047	463.4268188476565	943.837768554688	227.0376434326173	459.9730224609377	974.300903320313	346.4068298339845	398.335632324219	944.8789672851567	307.5851440429689	404.8506469726565	1014.859802246094	322.9284667968751	90.39852142333987	1045.450805664063	238.9783782958986	110.3101501464844	1074.872192382813	271.0240783691407	37.18169403076173	1025.95068359375	271.2767028808595	103.8913192749024	1194.810180664063	329.8796691894532	108.3841781616212	1189.856323242188	361.1641235351564	73.71199798583987	1149.468139648438	6.424582004547123	773.0973510742192	766.480163574219	67.29539489746097	427.0844421386721	748.8750610351565	188.4919891357422	422.3966369628909	762.4546508789065	70.27841949462893	363.2304077148439	720.199645996094	121.4784317016602	350.5328979492189	780.9071655273442	139.1011505126954	67.13441467285159	624.754089355469	223.9241180419923	84.5246276855469	664.382751464844	197.4326171875001	28.8788528442383	579.9353027343752	210.5932464599611	24.9446430206299	764.824157714844	145.5153961181641	36.47767639160158	772.4983520507817	98.97427368164068	24.38202285766603	711.637390136719	148.2219390869141	1369.6728515625	703.924011230469	168.6447143554688	1133.817138671875	646.3187255859377	161.7988433837891	1144.355834960938	877.2300415039067	151.6233215332032	1304.578735351563	829.7068481445317	261.2495422363282	1180.09814453125	640.755798339844	245.0299072265626	1310.398071289063	660.6177368164065	350.3559875488282	1313.197875976563	743.4544067382815	333.2958374023439	1323.939453125	783.129272460938	415.7190551757815	1039.533569335938	748.8265380859377	341.1109619140626	1006.452575683594	722.0424804687502	390.6186218261721	1004.585510253907	716.0391235351565	374.7186584472657	817.743041992188	859.7616577148442	437.8291320800784	807.3014526367192	809.5835571289067	386.7938232421877	740.910827636719	901.7128295898442	436.8548889160159	728.457214355469	812.5908813476567	51.9726257324219	1170.11181640625	634.0693969726565	66.19016265869143	1294.892456054688	659.6390380859377	-38.82417297363283	1284.500122070313	735.6536254882815	-28.82113647460939	1289.595947265625	784.755249023438	-84.33939361572268	984.9521484375005	739.6057128906252	-8.815882682800297	971.8190917968755	711.539489746094	-54.55517578125003	963.394409179688	709.1985473632815	-45.76773071289064	779.6558227539067	838.1582031250005	-107.7387924194337	774.664916992188	785.5204467773442	-59.375114440918	690.0279541015627	868.571411132813	-104.188591003418	695.5582275390627	776.813354492188	
